<svg xmlns="http://www.w3.org/2000/svg" xmlns:svg="http://www.w3.org/2000/svg" id="svg2" width="1052.362" height="1488.189" version="1.1"><metadata id="metadata7"/><g id="layer1" transform="translate(0,435.82669)"><path style="fill:#000;fill-opacity:1;stroke:none" id="path2998" d="m 418.20314,189.69191 a 43.941635,43.941635 0 1 1 -87.88327,0 43.941635,43.941635 0 1 1 87.88327,0 z" transform="matrix(0.82712324,0,0,0.82712324,-11.579529,-303.76482)"/><path id="path3768" d="m 418.20314,189.69191 a 43.941635,43.941635 0 1 1 -87.88327,0 43.941635,43.941635 0 1 1 87.88327,0 z" transform="matrix(0.82712324,0,0,0.82712324,-11.579529,-121.16486)" style="fill:#000;fill-opacity:1;stroke:none"/><path style="fill:#000;fill-opacity:1;stroke:none" id="path3782" d="m 418.20314,189.69191 a 43.941635,43.941635 0 1 1 -87.88327,0 43.941635,43.941635 0 1 1 87.88327,0 z" transform="matrix(0.82712324,0,0,0.82712324,-11.579529,61.434761)"/><path id="path3784" d="m 418.20314,189.69191 a 43.941635,43.941635 0 1 1 -87.88327,0 43.941635,43.941635 0 1 1 87.88327,0 z" transform="matrix(0.82712324,0,0,0.82712324,-11.579529,244.03438)" style="fill:#000;fill-opacity:1;stroke:none"/><path style="fill:#000;fill-opacity:1;stroke:none" id="path3786" d="m 418.20314,189.69191 a 43.941635,43.941635 0 1 1 -87.88327,0 43.941635,43.941635 0 1 1 87.88327,0 z" transform="matrix(0.82712324,0,0,0.82712324,-11.579529,426.634)"/><path id="path3788" d="m 418.20314,189.69191 a 43.941635,43.941635 0 1 1 -87.88327,0 43.941635,43.941635 0 1 1 87.88327,0 z" transform="matrix(0.82712324,0,0,0.82712324,-11.579529,609.23366)" style="fill:#000;fill-opacity:1;stroke:none"/><path id="path3790" d="m 418.20314,189.69191 a 43.941635,43.941635 0 1 1 -87.88327,0 43.941635,43.941635 0 1 1 87.88327,0 z" transform="matrix(0.82712324,0,0,0.82712324,171.02009,-303.76482)" style="fill:#000;fill-opacity:1;stroke:none"/><path style="fill:#000;fill-opacity:1;stroke:none" id="path3792" d="m 418.20314,189.69191 a 43.941635,43.941635 0 1 1 -87.88327,0 43.941635,43.941635 0 1 1 87.88327,0 z" transform="matrix(0.82712324,0,0,0.82712324,171.02009,-121.16486)"/><path id="path3794" d="m 418.20314,189.69191 a 43.941635,43.941635 0 1 1 -87.88327,0 43.941635,43.941635 0 1 1 87.88327,0 z" transform="matrix(0.82712324,0,0,0.82712324,171.02009,61.434761)" style="fill:#000;fill-opacity:1;stroke:none"/><path style="fill:#000;fill-opacity:1;stroke:none" id="path3796" d="m 418.20314,189.69191 a 43.941635,43.941635 0 1 1 -87.88327,0 43.941635,43.941635 0 1 1 87.88327,0 z" transform="matrix(0.82712324,0,0,0.82712324,171.02009,244.03438)"/><path id="path3798" d="m 418.20314,189.69191 a 43.941635,43.941635 0 1 1 -87.88327,0 43.941635,43.941635 0 1 1 87.88327,0 z" transform="matrix(0.82712324,0,0,0.82712324,171.02009,426.634)" style="fill:#000;fill-opacity:1;stroke:none"/><path style="fill:#000;fill-opacity:1;stroke:none" id="path3800" d="m 418.20314,189.69191 a 43.941635,43.941635 0 1 1 -87.88327,0 43.941635,43.941635 0 1 1 87.88327,0 z" transform="matrix(0.82712324,0,0,0.82712324,171.02009,609.23366)"/><path style="fill:#000;fill-opacity:1;stroke:none" id="path3802" d="m 418.20314,189.69191 a 43.941635,43.941635 0 1 1 -87.88327,0 43.941635,43.941635 0 1 1 87.88327,0 z" transform="matrix(0.82712324,0,0,0.82712324,353.61971,-303.76482)"/><path id="path3804" d="m 418.20314,189.69191 a 43.941635,43.941635 0 1 1 -87.88327,0 43.941635,43.941635 0 1 1 87.88327,0 z" transform="matrix(0.82712324,0,0,0.82712324,353.61971,-121.16486)" style="fill:#000;fill-opacity:1;stroke:none"/><path style="fill:#000;fill-opacity:1;stroke:none" id="path3806" d="m 418.20314,189.69191 a 43.941635,43.941635 0 1 1 -87.88327,0 43.941635,43.941635 0 1 1 87.88327,0 z" transform="matrix(0.82712324,0,0,0.82712324,353.61971,61.434761)"/><path id="path3808" d="m 418.20314,189.69191 a 43.941635,43.941635 0 1 1 -87.88327,0 43.941635,43.941635 0 1 1 87.88327,0 z" transform="matrix(0.82712324,0,0,0.82712324,353.61971,244.03438)" style="fill:#000;fill-opacity:1;stroke:none"/><path style="fill:#000;fill-opacity:1;stroke:none" id="path3810" d="m 418.20314,189.69191 a 43.941635,43.941635 0 1 1 -87.88327,0 43.941635,43.941635 0 1 1 87.88327,0 z" transform="matrix(0.82712324,0,0,0.82712324,353.61971,426.634)"/><path id="path3812" d="m 418.20314,189.69191 a 43.941635,43.941635 0 1 1 -87.88327,0 43.941635,43.941635 0 1 1 87.88327,0 z" transform="matrix(0.82712324,0,0,0.82712324,353.61971,609.23366)" style="fill:#000;fill-opacity:1;stroke:none"/><path id="path3814" d="m 418.20314,189.69191 a 43.941635,43.941635 0 1 1 -87.88327,0 43.941635,43.941635 0 1 1 87.88327,0 z" transform="matrix(0.82712324,0,0,0.82712324,536.21934,-303.76482)" style="fill:#000;fill-opacity:1;stroke:none"/><path style="fill:#000;fill-opacity:1;stroke:none" id="path3816" d="m 418.20314,189.69191 a 43.941635,43.941635 0 1 1 -87.88327,0 43.941635,43.941635 0 1 1 87.88327,0 z" transform="matrix(0.82712324,0,0,0.82712324,536.21934,-121.16486)"/><path id="path3818" d="m 418.20314,189.69191 a 43.941635,43.941635 0 1 1 -87.88327,0 43.941635,43.941635 0 1 1 87.88327,0 z" transform="matrix(0.82712324,0,0,0.82712324,536.21934,61.434761)" style="fill:#000;fill-opacity:1;stroke:none"/><path style="fill:#000;fill-opacity:1;stroke:none" id="path3820" d="m 418.20314,189.69191 a 43.941635,43.941635 0 1 1 -87.88327,0 43.941635,43.941635 0 1 1 87.88327,0 z" transform="matrix(0.82712324,0,0,0.82712324,536.21934,244.03438)"/><path id="path3822" d="m 418.20314,189.69191 a 43.941635,43.941635 0 1 1 -87.88327,0 43.941635,43.941635 0 1 1 87.88327,0 z" transform="matrix(0.82712324,0,0,0.82712324,536.21934,426.634)" style="fill:#000;fill-opacity:1;stroke:none"/><path style="fill:#000;fill-opacity:1;stroke:none" id="path3824" d="m 418.20314,189.69191 a 43.941635,43.941635 0 1 1 -87.88327,0 43.941635,43.941635 0 1 1 87.88327,0 z" transform="matrix(0.82712324,0,0,0.82712324,536.21934,609.23366)"/><path style="fill:#000;fill-opacity:1;stroke:none" id="path3826" d="m 418.20314,189.69191 a 43.941635,43.941635 0 1 1 -87.88327,0 43.941635,43.941635 0 1 1 87.88327,0 z" transform="matrix(0.82712324,0,0,0.82712324,444.91993,-212.46542)"/><path id="path3828" d="m 418.20314,189.69191 a 43.941635,43.941635 0 1 1 -87.88327,0 43.941635,43.941635 0 1 1 87.88327,0 z" transform="matrix(0.82712324,0,0,0.82712324,444.91993,-29.865456)" style="fill:#000;fill-opacity:1;stroke:none"/><path style="fill:#000;fill-opacity:1;stroke:none" id="path3830" d="m 418.20314,189.69191 a 43.941635,43.941635 0 1 1 -87.88327,0 43.941635,43.941635 0 1 1 87.88327,0 z" transform="matrix(0.82712324,0,0,0.82712324,444.91993,152.73416)"/><path id="path3832" d="m 418.20314,189.69191 a 43.941635,43.941635 0 1 1 -87.88327,0 43.941635,43.941635 0 1 1 87.88327,0 z" transform="matrix(0.82712324,0,0,0.82712324,444.91993,335.33379)" style="fill:#000;fill-opacity:1;stroke:none"/><path style="fill:#000;fill-opacity:1;stroke:none" id="path3834" d="m 418.20314,189.69191 a 43.941635,43.941635 0 1 1 -87.88327,0 43.941635,43.941635 0 1 1 87.88327,0 z" transform="matrix(0.82712324,0,0,0.82712324,444.91993,517.93341)"/><path id="path3838" d="m 418.20314,189.69191 a 43.941635,43.941635 0 1 1 -87.88327,0 43.941635,43.941635 0 1 1 87.88327,0 z" transform="matrix(0.82712324,0,0,0.82712324,262.32031,-212.46542)" style="fill:#000;fill-opacity:1;stroke:none"/><path style="fill:#000;fill-opacity:1;stroke:none" id="path3840" d="m 418.20314,189.69191 a 43.941635,43.941635 0 1 1 -87.88327,0 43.941635,43.941635 0 1 1 87.88327,0 z" transform="matrix(0.82712324,0,0,0.82712324,262.32031,-29.865456)"/><path id="path3842" d="m 418.20314,189.69191 a 43.941635,43.941635 0 1 1 -87.88327,0 43.941635,43.941635 0 1 1 87.88327,0 z" transform="matrix(0.82712324,0,0,0.82712324,262.32031,152.73416)" style="fill:#000;fill-opacity:1;stroke:none"/><path style="fill:#000;fill-opacity:1;stroke:none" id="path3844" d="m 418.20314,189.69191 a 43.941635,43.941635 0 1 1 -87.88327,0 43.941635,43.941635 0 1 1 87.88327,0 z" transform="matrix(0.82712324,0,0,0.82712324,262.32031,335.33379)"/><path id="path3846" d="m 418.20314,189.69191 a 43.941635,43.941635 0 1 1 -87.88327,0 43.941635,43.941635 0 1 1 87.88327,0 z" transform="matrix(0.82712324,0,0,0.82712324,262.32031,517.93341)" style="fill:#000;fill-opacity:1;stroke:none"/><path style="fill:#000;fill-opacity:1;stroke:none" id="path3850" d="m 418.20314,189.69191 a 43.941635,43.941635 0 1 1 -87.88327,0 43.941635,43.941635 0 1 1 87.88327,0 z" transform="matrix(0.82712324,0,0,0.82712324,79.720689,-212.46542)"/><path id="path3852" d="m 418.20314,189.69191 a 43.941635,43.941635 0 1 1 -87.88327,0 43.941635,43.941635 0 1 1 87.88327,0 z" transform="matrix(0.82712324,0,0,0.82712324,79.720689,-29.865456)" style="fill:#000;fill-opacity:1;stroke:none"/><path style="fill:#000;fill-opacity:1;stroke:none" id="path3854" d="m 418.20314,189.69191 a 43.941635,43.941635 0 1 1 -87.88327,0 43.941635,43.941635 0 1 1 87.88327,0 z" transform="matrix(0.82712324,0,0,0.82712324,79.720689,152.73416)"/><path id="path3856" d="m 418.20314,189.69191 a 43.941635,43.941635 0 1 1 -87.88327,0 43.941635,43.941635 0 1 1 87.88327,0 z" transform="matrix(0.82712324,0,0,0.82712324,79.720689,335.33379)" style="fill:#000;fill-opacity:1;stroke:none"/><path style="fill:#000;fill-opacity:1;stroke:none" id="path3858" d="m 418.20314,189.69191 a 43.941635,43.941635 0 1 1 -87.88327,0 43.941635,43.941635 0 1 1 87.88327,0 z" transform="matrix(0.82712324,0,0,0.82712324,79.720689,517.93341)"/><path id="path3862" d="m 418.20314,189.69191 a 43.941635,43.941635 0 1 1 -87.88327,0 43.941635,43.941635 0 1 1 87.88327,0 z" transform="matrix(0.82712324,0,0,0.82712324,-102.87893,-212.46542)" style="fill:#000;fill-opacity:1;stroke:none"/><path style="fill:#000;fill-opacity:1;stroke:none" id="path3864" d="m 418.20314,189.69191 a 43.941635,43.941635 0 1 1 -87.88327,0 43.941635,43.941635 0 1 1 87.88327,0 z" transform="matrix(0.82712324,0,0,0.82712324,-102.87893,-29.865456)"/><path id="path3866" d="m 418.20314,189.69191 a 43.941635,43.941635 0 1 1 -87.88327,0 43.941635,43.941635 0 1 1 87.88327,0 z" transform="matrix(0.82712324,0,0,0.82712324,-102.87893,152.73416)" style="fill:#000;fill-opacity:1;stroke:none"/><path style="fill:#000;fill-opacity:1;stroke:none" id="path3868" d="m 418.20314,189.69191 a 43.941635,43.941635 0 1 1 -87.88327,0 43.941635,43.941635 0 1 1 87.88327,0 z" transform="matrix(0.82712324,0,0,0.82712324,-102.87893,335.33379)"/><path id="path3870" d="m 418.20314,189.69191 a 43.941635,43.941635 0 1 1 -87.88327,0 43.941635,43.941635 0 1 1 87.88327,0 z" transform="matrix(0.82712324,0,0,0.82712324,-102.87893,517.93341)" style="fill:#000;fill-opacity:1;stroke:none"/></g></svg>