<svg xmlns="http://www.w3.org/2000/svg" xmlns:svg="http://www.w3.org/2000/svg" id="svg2" width="1052.362" height="1488.189" version="1.1"><metadata id="metadata7"/><g id="layer1" transform="translate(0,435.82669)"><g id="g4010" transform="matrix(-1.2949645,0,0,-1.2949645,2379.1134,184.98498)"><path id="rect3977" d="m 1180.875,-159.375 0,100 100,0 0,-100 -100,0 z m 100,100 0,100 100,0 0,-100 -100,0 z m 100,0 100,0 0,-100 -100,0 0,100 z m 100,0 0,100 100,0 0,-100 -100,0 z m 100,0 100,0 0,-100 -100,0 0,100 z m 100,0 0,100 100,0 0,-100 -100,0 z m 0,100 -100,0 0,100 100,0 0,-100 z m 0,100 0,100 100,0 0,-100 -100,0 z m 0,100 -100,0 0,100 100,0 0,-100 z m 0,100 0,100 100,0 0,-100 -100,0 z m 0,100 -100,0 0,100 100,0 0,-100 z m 0,100 0,100 100,0 0,-100 -100,0 z m 0,100 -100,0 0,100 100,0 0,-100 z m 0,100 0,100 100,0 0,-100 -100,0 z m -100,0 -100,0 0,100 100,0 0,-100 z m -100,0 0,-100 -100,0 0,100 100,0 z m -100,0 -100,0 0,100 100,0 0,-100 z m -100,0 0,-100 -100,0 0,100 100,0 z m -100,0 -100,0 0,100 100,0 0,-100 z m 0,-100 0,-100 -100,0 0,100 100,0 z m 0,-100 100,0 0,-100 -100,0 0,100 z m 0,-100 0,-100 -100,0 0,100 100,0 z m 0,-100 100,0 0,-100 -100,0 0,100 z m 0,-100 0,-100 -100,0 0,100 100,0 z m 0,-100 100,0 0,-100 -100,0 0,100 z m 0,-100 0,-100 -100,0 0,100 100,0 z m 100,100 0,100 100,0 0,-100 -100,0 z m 100,0 100,0 0,-100 -100,0 0,100 z m 100,0 0,100 100,0 0,-100 -100,0 z m 0,100 -100,0 0,100 100,0 0,-100 z m 0,100 0,100 100,0 0,-100 -100,0 z m 0,100 -100,0 0,100 100,0 0,-100 z m 0,100 0,100 100,0 0,-100 -100,0 z m -100,0 -100,0 0,100 100,0 0,-100 z m 0,-100 0,-100 -100,0 0,100 100,0 z" transform="translate(0,-435.82669)" style="fill:#000;fill-opacity:1;stroke:none"/></g></g></svg>