<svg xmlns="http://www.w3.org/2000/svg" xmlns:svg="http://www.w3.org/2000/svg" id="svg2" width="1052.362" height="1488.189" version="1.1"><metadata id="metadata7"/><g id="layer1" transform="translate(0,435.82669)"><g id="g3769" transform="matrix(0.61739131,0,0,0.61739131,9.6494639,1105.0243)"><circle style="fill:#000;fill-opacity:1;stroke:none" id="circle3587" cx="311.636" cy="-540.521" r="50"/><circle id="circle3595" cx="461.636" cy="-540.521" r="50" style="fill:#000;fill-opacity:1;stroke:none"/><circle style="fill:#000;fill-opacity:1;stroke:none" id="circle3597" cx="611.636" cy="-540.521" r="50"/><circle id="circle3599" cx="761.636" cy="-540.521" r="50" style="fill:#000;fill-opacity:1;stroke:none"/><circle style="fill:#000;fill-opacity:1;stroke:none" id="circle3601" cx="911.636" cy="-540.521" r="50"/><circle id="circle3603" cx="1061.636" cy="-540.521" r="50" style="fill:#000;fill-opacity:1;stroke:none"/><circle style="fill:#000;fill-opacity:1;stroke:none" id="circle3605" cx="1211.636" cy="-540.521" r="50"/><circle id="circle3607" cx="1361.636" cy="-540.521" r="50" style="fill:#000;fill-opacity:1;stroke:none"/><circle id="circle3609" cx="311.636" cy="-690.521" r="50" style="fill:#000;fill-opacity:1;stroke:none"/><circle style="fill:#000;fill-opacity:1;stroke:none" id="circle3611" cx="461.636" cy="-690.521" r="50"/><circle id="circle3613" cx="611.636" cy="-690.521" r="50" style="fill:#000;fill-opacity:1;stroke:none"/><circle style="fill:#000;fill-opacity:1;stroke:none" id="circle3615" cx="761.636" cy="-690.521" r="50"/><circle id="circle3617" cx="911.636" cy="-690.521" r="50" style="fill:#000;fill-opacity:1;stroke:none"/><circle style="fill:#000;fill-opacity:1;stroke:none" id="circle3619" cx="1061.636" cy="-690.521" r="50"/><circle id="circle3621" cx="1211.636" cy="-690.521" r="50" style="fill:#000;fill-opacity:1;stroke:none"/><circle style="fill:#000;fill-opacity:1;stroke:none" id="circle3623" cx="1361.636" cy="-690.521" r="50"/><circle style="fill:#000;fill-opacity:1;stroke:none" id="circle3625" cx="311.636" cy="-840.521" r="50"/><circle id="circle3627" cx="461.636" cy="-840.521" r="50" style="fill:#000;fill-opacity:1;stroke:none"/><circle style="fill:#000;fill-opacity:1;stroke:none" id="circle3629" cx="611.636" cy="-840.521" r="50"/><circle id="circle3631" cx="761.636" cy="-840.521" r="50" style="fill:#000;fill-opacity:1;stroke:none"/><circle style="fill:#000;fill-opacity:1;stroke:none" id="circle3633" cx="911.636" cy="-840.521" r="50"/><circle id="circle3635" cx="1061.636" cy="-840.521" r="50" style="fill:#000;fill-opacity:1;stroke:none"/><circle style="fill:#000;fill-opacity:1;stroke:none" id="circle3637" cx="1211.636" cy="-840.521" r="50"/><circle id="circle3639" cx="1361.636" cy="-840.521" r="50" style="fill:#000;fill-opacity:1;stroke:none"/><circle id="circle3641" cx="311.636" cy="-990.521" r="50" style="fill:#000;fill-opacity:1;stroke:none"/><circle style="fill:#000;fill-opacity:1;stroke:none" id="circle3643" cx="461.636" cy="-990.521" r="50"/><circle id="circle3645" cx="611.636" cy="-990.521" r="50" style="fill:#000;fill-opacity:1;stroke:none"/><circle style="fill:#000;fill-opacity:1;stroke:none" id="circle3647" cx="761.636" cy="-990.521" r="50"/><circle id="circle3649" cx="911.636" cy="-990.521" r="50" style="fill:#000;fill-opacity:1;stroke:none"/><circle style="fill:#000;fill-opacity:1;stroke:none" id="circle3651" cx="1061.636" cy="-990.521" r="50"/><circle id="circle3653" cx="1211.636" cy="-990.521" r="50" style="fill:#000;fill-opacity:1;stroke:none"/><circle style="fill:#000;fill-opacity:1;stroke:none" id="circle3655" cx="1361.636" cy="-990.521" r="50"/><circle style="fill:#000;fill-opacity:1;stroke:none" id="circle3657" cx="311.636" cy="-1140.521" r="50"/><circle id="circle3659" cx="461.636" cy="-1140.521" r="50" style="fill:#000;fill-opacity:1;stroke:none"/><circle style="fill:#000;fill-opacity:1;stroke:none" id="circle3661" cx="611.636" cy="-1140.521" r="50"/><circle id="circle3663" cx="761.636" cy="-1140.521" r="50" style="fill:#000;fill-opacity:1;stroke:none"/><circle style="fill:#000;fill-opacity:1;stroke:none" id="circle3665" cx="911.636" cy="-1140.521" r="50"/><circle id="circle3667" cx="1061.636" cy="-1140.521" r="50" style="fill:#000;fill-opacity:1;stroke:none"/><circle style="fill:#000;fill-opacity:1;stroke:none" id="circle3669" cx="1211.636" cy="-1140.521" r="50"/><circle id="circle3671" cx="1361.636" cy="-1140.521" r="50" style="fill:#000;fill-opacity:1;stroke:none"/><circle id="circle3673" cx="311.636" cy="-1290.521" r="50" style="fill:#000;fill-opacity:1;stroke:none"/><circle style="fill:#000;fill-opacity:1;stroke:none" id="circle3675" cx="461.636" cy="-1290.521" r="50"/><circle id="circle3677" cx="611.636" cy="-1290.521" r="50" style="fill:#000;fill-opacity:1;stroke:none"/><circle style="fill:#000;fill-opacity:1;stroke:none" id="circle3679" cx="761.636" cy="-1290.521" r="50"/><circle id="circle3681" cx="911.636" cy="-1290.521" r="50" style="fill:#000;fill-opacity:1;stroke:none"/><circle style="fill:#000;fill-opacity:1;stroke:none" id="circle3683" cx="1061.636" cy="-1290.521" r="50"/><circle id="circle3685" cx="1211.636" cy="-1290.521" r="50" style="fill:#000;fill-opacity:1;stroke:none"/><circle style="fill:#000;fill-opacity:1;stroke:none" id="circle3687" cx="1361.636" cy="-1290.521" r="50"/><circle style="fill:#000;fill-opacity:1;stroke:none" id="circle3689" cx="311.636" cy="-1440.521" r="50"/><circle id="circle3691" cx="461.636" cy="-1440.521" r="50" style="fill:#000;fill-opacity:1;stroke:none"/><circle style="fill:#000;fill-opacity:1;stroke:none" id="circle3693" cx="611.636" cy="-1440.521" r="50"/><circle id="circle3695" cx="761.636" cy="-1440.521" r="50" style="fill:#000;fill-opacity:1;stroke:none"/><circle style="fill:#000;fill-opacity:1;stroke:none" id="circle3697" cx="911.636" cy="-1440.521" r="50"/><circle id="circle3699" cx="1061.636" cy="-1440.521" r="50" style="fill:#000;fill-opacity:1;stroke:none"/><circle style="fill:#000;fill-opacity:1;stroke:none" id="circle3701" cx="1211.636" cy="-1440.521" r="50"/><circle id="circle3703" cx="1361.636" cy="-1440.521" r="50" style="fill:#000;fill-opacity:1;stroke:none"/><circle id="circle3705" cx="311.636" cy="-1590.521" r="50" style="fill:#000;fill-opacity:1;stroke:none"/><circle style="fill:#000;fill-opacity:1;stroke:none" id="circle3707" cx="461.636" cy="-1590.521" r="50"/><circle id="circle3709" cx="611.636" cy="-1590.521" r="50" style="fill:#000;fill-opacity:1;stroke:none"/><circle style="fill:#000;fill-opacity:1;stroke:none" id="circle3711" cx="761.636" cy="-1590.521" r="50"/><circle id="circle3713" cx="911.636" cy="-1590.521" r="50" style="fill:#000;fill-opacity:1;stroke:none"/><circle style="fill:#000;fill-opacity:1;stroke:none" id="circle3715" cx="1061.636" cy="-1590.521" r="50"/><circle id="circle3717" cx="1211.636" cy="-1590.521" r="50" style="fill:#000;fill-opacity:1;stroke:none"/><circle style="fill:#000;fill-opacity:1;stroke:none" id="circle3719" cx="1361.636" cy="-1590.521" r="50"/><circle style="fill:#000;fill-opacity:1;stroke:none" id="circle3721" cx="311.636" cy="-1740.521" r="50"/><circle id="circle3723" cx="461.636" cy="-1740.521" r="50" style="fill:#000;fill-opacity:1;stroke:none"/><circle style="fill:#000;fill-opacity:1;stroke:none" id="circle3725" cx="611.636" cy="-1740.521" r="50"/><circle id="circle3727" cx="761.636" cy="-1740.521" r="50" style="fill:#000;fill-opacity:1;stroke:none"/><circle style="fill:#000;fill-opacity:1;stroke:none" id="circle3729" cx="911.636" cy="-1740.521" r="50"/><circle id="circle3731" cx="1061.636" cy="-1740.521" r="50" style="fill:#000;fill-opacity:1;stroke:none"/><circle style="fill:#000;fill-opacity:1;stroke:none" id="circle3733" cx="1211.636" cy="-1740.521" r="50"/><circle id="circle3735" cx="1361.636" cy="-1740.521" r="50" style="fill:#000;fill-opacity:1;stroke:none"/><circle id="circle3737" cx="311.636" cy="-1890.521" r="50" style="fill:#000;fill-opacity:1;stroke:none"/><circle style="fill:#000;fill-opacity:1;stroke:none" id="circle3739" cx="461.636" cy="-1890.521" r="50"/><circle id="circle3741" cx="611.636" cy="-1890.521" r="50" style="fill:#000;fill-opacity:1;stroke:none"/><circle style="fill:#000;fill-opacity:1;stroke:none" id="circle3743" cx="761.636" cy="-1890.521" r="50"/><circle id="circle3745" cx="911.636" cy="-1890.521" r="50" style="fill:#000;fill-opacity:1;stroke:none"/><circle style="fill:#000;fill-opacity:1;stroke:none" id="circle3747" cx="1061.636" cy="-1890.521" r="50"/><circle id="circle3749" cx="1211.636" cy="-1890.521" r="50" style="fill:#000;fill-opacity:1;stroke:none"/><circle style="fill:#000;fill-opacity:1;stroke:none" id="circle3751" cx="1361.636" cy="-1890.521" r="50"/><circle style="fill:#000;fill-opacity:1;stroke:none" id="circle3753" cx="311.636" cy="-2040.521" r="50"/><circle id="circle3755" cx="461.636" cy="-2040.521" r="50" style="fill:#000;fill-opacity:1;stroke:none"/><circle style="fill:#000;fill-opacity:1;stroke:none" id="circle3757" cx="611.636" cy="-2040.521" r="50"/><circle id="circle3759" cx="761.636" cy="-2040.521" r="50" style="fill:#000;fill-opacity:1;stroke:none"/><circle style="fill:#000;fill-opacity:1;stroke:none" id="circle3761" cx="911.636" cy="-2040.521" r="50"/><circle id="circle3763" cx="1061.636" cy="-2040.521" r="50" style="fill:#000;fill-opacity:1;stroke:none"/><circle style="fill:#000;fill-opacity:1;stroke:none" id="circle3765" cx="1211.636" cy="-2040.521" r="50"/><circle id="circle3767" cx="1361.636" cy="-2040.521" r="50" style="fill:#000;fill-opacity:1;stroke:none"/></g></g></svg>